<?xml version="1.0" encoding="UTF-8"?><svg id="Ebene_1" xmlns="http://www.w3.org/2000/svg" viewBox="0 0 302.21 85.66"><defs><style>.cls-1{fill:#1d1d1b;}.cls-2{fill:#cfe4f7;}</style></defs><path class="cls-2" d="M287.1,71.54c0,6.26-4.9,11.34-10.94,11.34H23.47c-6.05,0-10.94-5.08-10.94-11.34V23.36c0-6.26,8-12.34,10.94-12.34h252.69c6.04,0,10.94,6.08,10.94,12.34v48.19Z"/><path class="cls-1" d="M275.49,83.88H24.41c-6.55,0-11.88-5.54-11.88-12.34v-5.56h1.93v5.56c0,5.7,4.47,10.34,9.95,10.34h251.08c5.49,0,9.95-4.64,9.95-10.34V23.36c0-5.7-4.47-10.34-9.95-10.34H75.81v-2h199.68c6.55,0,11.88,5.54,11.88,12.34v48.19c0,6.8-5.33,12.34-11.88,12.34Z"/><path class="cls-1" d="M14.53,25.51h-2v-2.16c0-6.8,5.54-12.34,12.34-12.34h25.43v2h-25.43c-5.7,0-10.34,4.64-10.34,10.34v2.16Z"/><path class="cls-1" d="M75.48,57.71l-5.68,12.43h-10.86l23.29-47.85h13.13l5.61,47.85h-10.72l-.99-12.43h-13.77ZM88.83,49.9l-.92-10.29c-.21-2.63-.5-6.46-.71-9.37h-.14c-1.21,2.91-2.56,6.6-3.83,9.37l-4.76,10.29h10.37Z"/><path class="cls-1" d="M102.67,70.14l6.6-34.72h10.22l-6.6,34.72h-10.22ZM115.59,31.09c-2.77,0-4.9-1.92-4.9-4.97.07-3.48,2.77-5.82,5.89-5.82s5.11,1.99,5.11,5.04c0,3.62-2.77,5.75-6.03,5.75h-.07Z"/><path class="cls-1" d="M117.94,70.14l3.91-20.66c.99-5.25,1.42-11.08,1.77-14.06h8.87c-.21,2.34-.43,4.69-.64,7.1h.21c2.41-4.62,6.32-7.88,11.08-7.88.64,0,1.28,0,1.92.07l-1.99,9.94c-.5,0-1.06-.07-1.63-.07-6.53,0-9.58,5.82-10.86,12.64l-2.41,12.92h-10.22Z"/><path class="cls-1" d="M179.42,68.79c-2.55,1.14-6.89,2.13-12.64,2.13-12.64,0-21.16-7.74-21.16-20.38,0-10.72,4.83-19.1,12.07-23.93,4.97-3.48,10.86-5.11,17.61-5.11,5.18,0,9.09,1.21,10.44,2.06l-2.77,8.31c-1.42-.71-4.54-1.56-8.66-1.56s-8.02,1.28-10.93,3.69c-4.05,3.27-6.6,8.73-6.6,15.41,0,7.6,4.26,12.71,12.71,12.71,3.34,0,6.67-.57,9.09-1.56l.85,8.24Z"/><path class="cls-1" d="M217.12,48.91c0,12.71-8.66,22.01-20.73,22.01-8.8,0-14.7-5.75-14.7-14.34,0-12.07,8.38-21.94,20.73-21.94,9.3,0,14.7,6.39,14.7,14.27ZM192.27,56.36c0,4.05,1.99,6.75,5.54,6.75,5.61,0,8.73-8.17,8.73-14.13,0-3.2-1.35-6.6-5.47-6.6-5.89,0-8.87,8.59-8.8,13.99Z"/><path class="cls-1" d="M216.62,70.14l4.33-23.43c.78-4.4,1.35-8.24,1.78-11.29h8.8l-.64,5.61h.14c3.12-4.47,7.38-6.39,11.86-6.39,5.54,0,7.95,3.48,8.24,6.53,3.12-4.47,7.46-6.53,11.93-6.53,5.4,0,8.52,3.41,8.52,9.3,0,1.49-.28,4.19-.64,5.96l-3.76,20.24h-9.87l3.48-18.96c.28-1.42.5-2.91.5-4.26,0-2.41-1.06-4.12-3.48-4.12-3.41,0-6.74,4.61-8.09,11.57l-2.91,15.76h-9.87l3.55-19.1c.29-1.42.5-2.77.5-3.98,0-2.34-.78-4.26-3.27-4.26-3.48,0-7.1,4.9-8.38,11.71l-2.84,15.62h-9.87Z"/><path class="cls-1" d="M16.07,29.68c-8.42,0-15.26,7.13-15.26,15.9s6.85,15.9,15.26,15.9,15.26-7.13,15.26-15.9-6.85-15.9-15.26-15.9Z"/><path class="cls-1" d="M36.57,39.59c.68,2,1.02,4.07,1.02,6.16,0,1.51-.2,3.08-.59,4.65l-.08.31h17.67l5.75-11.45h-23.88l.11.33Z"/><path class="cls-1" d="M36.11,53.1c-1.39,3.35-3.71,6.29-6.72,8.5l-.32.23,15.65,8.54,5.12-10.21-13.62-7.32-.11.25Z"/><path class="cls-1" d="M78.49,1.63L26.96,27.75l-.84.43.83.46c3.59,1.98,6.45,4.9,8.27,8.45l.23.44.44-.22,34.33-17.39.15-.07.07-.15,8.73-17.39.68-1.36-1.35.69Z"/><path class="cls-1" d="M296.46,10.95c2.81,0,4.99,2.18,4.99,4.96s-2.18,5.02-5.02,5.02-5.08-2.18-5.08-5.02,2.25-4.96,5.08-4.96h.03ZM296.4,11.82c-2.25,0-3.96,1.84-3.96,4.09s1.71,4.12,4.02,4.12c2.21.03,3.9-1.81,3.9-4.08s-1.68-4.12-3.93-4.12h-.03ZM295.53,18.65h-.97v-5.21c.53-.09,1.09-.16,1.81-.16.87,0,1.31.16,1.62.41.31.22.53.62.53,1.12,0,.62-.47,1.03-1,1.22v.06c.44.19.69.59.84,1.28.16.78.28,1.09.41,1.28h-1c-.16-.19-.28-.65-.44-1.34-.12-.59-.47-.84-1.19-.84h-.62v2.18ZM295.53,15.72h.66c.69,0,1.34-.22,1.34-.81,0-.5-.34-.87-1.25-.87-.37,0-.59.03-.75.06v1.62Z"/></svg>