<?xml version="1.0" encoding="UTF-8"?>
<svg id="Layer_1" xmlns="http://www.w3.org/2000/svg" version="1.1" viewBox="0 0 229 56.18">
  <!-- Generator: Adobe Illustrator 29.8.1, SVG Export Plug-In . SVG Version: 2.1.1 Build 2)  -->
  <defs>
    <style>
      .st0 {
        fill: #e7121d;
      }

      .st1 {
        fill: #e30613;
      }

      .st2 {
        fill: #333;
      }
    </style>
  </defs>
  <g id="_Ńëîé_1">
    <path class="st0" d="M13.41,54.32H5.26c-2.65,0-4.82-2.17-4.82-4.82H.44c0-2.65,2.17-4.82,4.82-4.82h8.15c2.65,0,4.82,2.17,4.82,4.82h0c0,2.65-2.17,4.82-4.82,4.82Z"/>
    <path class="st2" d="M29.49,42.83c.75-.16,1.93-.28,3.14-.28,1.72,0,2.82.3,3.65.97.69.51,1.1,1.3,1.1,2.35,0,1.28-.85,2.41-2.25,2.92v.04c1.26.31,2.74,1.36,2.74,3.34,0,1.15-.45,2.02-1.13,2.67-.93.85-2.43,1.25-4.6,1.25-1.18,0-2.1-.08-2.67-.16v-13.1h.02ZM31.2,48.28h1.56c1.82,0,2.88-.95,2.88-2.23,0-1.56-1.19-2.18-2.92-2.18-.79,0-1.25.06-1.52.12v4.29ZM31.2,54.66c.34.06.83.08,1.44.08,1.78,0,3.42-.65,3.42-2.59,0-1.82-1.56-2.57-3.44-2.57h-1.42s0,5.08,0,5.08Z"/>
    <path class="st2" d="M47.06,49.73h-5.18v4.8h5.77v1.44h-7.49v-13.31h7.19v1.44h-5.47v4.21h5.18v1.42Z"/>
    <path class="st2" d="M52.89,55.97v-5.65l-4.21-7.66h1.95l1.88,3.67c.51,1.01.91,1.82,1.33,2.74h.04c.38-.87.83-1.74,1.34-2.74l1.92-3.67h1.95l-4.46,7.64v5.67s-1.74,0-1.74,0Z"/>
    <path class="st2" d="M71.27,49.17c0,4.58-2.79,7.01-6.18,7.01s-5.98-2.73-5.98-6.76,2.62-6.99,6.18-6.99,5.98,2.79,5.98,6.74ZM60.93,49.39c0,2.84,1.54,5.39,4.25,5.39s4.27-2.51,4.27-5.53c0-2.65-1.38-5.41-4.25-5.41s-4.27,2.63-4.27,5.55Z"/>
    <path class="st2" d="M73.47,55.97v-13.31h1.88l4.26,6.74c.99,1.56,1.76,2.96,2.39,4.33l.04-.02c-.16-1.78-.2-3.4-.2-5.47v-5.57h1.62v13.31h-1.74l-4.23-6.75c-.93-1.48-1.82-3-2.49-4.45l-.06.02c.1,1.68.14,3.28.14,5.49v5.69h-1.62,0Z"/>
    <path class="st2" d="M86.44,42.83c1.05-.16,2.29-.28,3.65-.28,2.47,0,4.23.57,5.39,1.66,1.19,1.09,1.88,2.63,1.88,4.78s-.67,3.95-1.92,5.18c-1.25,1.25-3.3,1.92-5.88,1.92-1.23,0-2.25-.06-3.12-.16,0,0,0-13.1,0-13.1ZM88.16,54.6c.44.08,1.07.1,1.74.1,3.67,0,5.67-2.05,5.67-5.65.02-3.14-1.76-5.13-5.39-5.13-.89,0-1.56.08-2.02.18v10.51h0Z"/>
    <path class="st2" d="M105.47,44.11h-4.05v-1.46h9.86v1.46h-4.07v11.85h-1.74v-11.85Z"/>
    <path class="st2" d="M114.46,42.65v5.57h6.44v-5.57h1.74v13.31h-1.74v-6.24h-6.44v6.24h-1.72v-13.31h1.72Z"/>
    <path class="st2" d="M132.49,49.73h-5.18v4.8h5.77v1.44h-7.49v-13.31h7.19v1.44h-5.47v4.21h5.18v1.42Z"/>
    <path class="st2" d="M139.24,53.87c.77.47,1.9.87,3.08.87,1.76,0,2.79-.93,2.79-2.27,0-1.25-.71-1.95-2.51-2.65-2.18-.77-3.52-1.9-3.52-3.77,0-2.08,1.72-3.62,4.31-3.62,1.36,0,2.35.31,2.94.65l-.47,1.4c-.43-.24-1.32-.63-2.53-.63-1.82,0-2.51,1.09-2.51,2,0,1.25.81,1.86,2.64,2.57,2.25.87,3.4,1.96,3.4,3.91,0,2.06-1.52,3.83-4.66,3.83-1.28,0-2.69-.38-3.39-.85l.43-1.44h0Z"/>
    <path class="st2" d="M151.72,44.11h-4.05v-1.46h9.86v1.46h-4.07v11.85h-1.74v-11.85h0Z"/>
    <path class="st2" d="M159.67,51.78l-1.38,4.19h-1.78l4.52-13.31h2.07l4.54,13.31h-1.84l-1.42-4.19h-4.72,0ZM164.03,50.43l-1.3-3.83c-.3-.87-.49-1.66-.69-2.43h-.04c-.2.79-.41,1.6-.67,2.41l-1.3,3.85h4.01,0Z"/>
    <path class="st2" d="M169.58,55.97v-13.31h1.88l4.26,6.74c.99,1.56,1.76,2.96,2.39,4.33l.04-.02c-.16-1.78-.2-3.4-.2-5.47v-5.57h1.62v13.31h-1.74l-4.23-6.75c-.93-1.48-1.82-3-2.49-4.45l-.06.02c.1,1.68.14,3.28.14,5.49v5.69h-1.62.01Z"/>
    <path class="st2" d="M182.56,42.83c1.05-.16,2.29-.28,3.65-.28,2.47,0,4.23.57,5.39,1.66,1.19,1.09,1.88,2.63,1.88,4.78s-.67,3.95-1.92,5.18c-1.25,1.25-3.3,1.92-5.88,1.92-1.23,0-2.25-.06-3.12-.16,0,0,0-13.1,0-13.1ZM184.27,54.6c.44.08,1.07.1,1.74.1,3.67,0,5.67-2.05,5.67-5.65.02-3.14-1.76-5.13-5.39-5.13-.89,0-1.56.08-2.02.18v10.51h0Z"/>
    <path class="st2" d="M197.56,51.78l-1.38,4.19h-1.78l4.52-13.31h2.07l4.54,13.31h-1.84l-1.42-4.19h-4.72,0ZM201.93,50.43l-1.3-3.83c-.3-.87-.49-1.66-.69-2.43h-.04c-.2.79-.41,1.6-.67,2.41l-1.3,3.85h4.01,0Z"/>
    <path class="st2" d="M207.47,42.83c.87-.18,2.11-.28,3.3-.28,1.84,0,3.02.34,3.85,1.08.67.59,1.05,1.5,1.05,2.53,0,1.76-1.11,2.93-2.51,3.4v.06c1.03.36,1.64,1.3,1.95,2.69.44,1.86.75,3.14,1.03,3.65h-1.78c-.21-.38-.51-1.52-.89-3.18-.39-1.84-1.1-2.53-2.67-2.59h-1.62v5.77h-1.72v-13.14h0ZM209.19,48.89h1.76c1.84,0,3-1.01,3-2.53,0-1.72-1.25-2.47-3.06-2.49-.83,0-1.42.08-1.7.16v4.86Z"/>
    <path class="st2" d="M218.08,42.83c1.05-.16,2.29-.28,3.65-.28,2.47,0,4.23.57,5.39,1.66,1.19,1.09,1.88,2.63,1.88,4.78s-.67,3.95-1.92,5.18c-1.25,1.25-3.3,1.92-5.88,1.92-1.23,0-2.25-.06-3.12-.16,0,0,0-13.1,0-13.1ZM219.8,54.6c.44.08,1.07.1,1.74.1,3.67,0,5.67-2.05,5.67-5.65.02-3.14-1.76-5.13-5.39-5.13-.89,0-1.56.08-2.02.18v10.51h0Z"/>
    <path class="st1" d="M107.73,6.6c.26.47.47.94.55,1.45h-6.23c-.68-1.58-2.09-2.73-3.67-3.29-1.92-.43-3.76.26-5.17,1.45-3.8,4.1-3.89,11.19-2.01,16.23.62,1.58,2.51,3.16,4.01,3.59,2.22.64,4.53,0,6.36-1.07v-5.36l-2.87.05-.03-4.33,10.08-.05v10.38c-4.46,3.9-10.38,6.58-16.48,4.48-5.55-1.84-8.67-7.56-9.05-13.07-.6-6.19,1.79-12.13,7.22-15.46,4.1-2.56,10.12-1.9,13.83.94,1.54,1.02,2.69,2.48,3.46,4.06h0Z"/>
    <path class="st1" d="M132.96,4.08l-3.16,3.12c-2.26-1.88-5.68-3.37-8.62-1.75-.73.55-1.11,1.28-1.15,2.13-.21,1.32,1.02,2.31,2.01,2.86,5.04,2.01,13.02,3.54,13.15,10.67.17,3.46-1.71,6.62-4.78,8.16-4.83,2.6-11.23,1.62-15.5-1.54l-1.71-1.84,3.63-3.37c2.65,2.39,6.02,4.18,9.65,3.07.68-.3,1.49-.9,1.71-1.62.3-.81.43-1.84.17-2.69-1.28-2.22-3.8-2.6-5.85-3.54-3.33-1.11-7.86-2.56-8.54-6.7-.9-3.76.81-7.22,3.84-9.44,4.61-2.78,11.66-1.84,15.16,2.48h0Z"/>
    <polygon class="st1" points="168.36 25.6 177.45 25.57 177.45 30.42 161.4 30.42 161.4 .66 168.36 .66 168.36 25.6 168.36 25.6"/>
    <polygon class="st1" points="200.04 5.36 188.44 5.36 188.46 12.69 198.28 12.66 198.33 17.27 188.6 17.27 188.6 25.6 200.72 25.6 200.67 30.41 181.58 30.4 181.6 .66 200.04 .66 200.04 5.36 200.04 5.36"/>
    <polygon class="st1" points="157.77 5.53 150.64 5.53 150.63 30.42 143.64 30.42 143.64 5.62 136.48 5.64 136.55 .66 157.77 .66 157.77 5.53 157.77 5.53"/>
    <polygon class="st1" points="77.83 30.4 72.25 30.4 62.26 13.73 62.26 30.4 55.08 30.4 55.08 .66 60.2 .66 70.75 18.98 70.75 .66 77.84 .66 77.83 30.4 77.83 30.4"/>
    <polygon class="st1" points="23.1 30.4 15.8 30.4 15.8 17.57 7.3 17.57 7.3 30.4 0 30.4 0 .66 7.3 .66 7.3 12.83 15.89 12.83 15.89 .66 23.1 .66 23.1 30.4 23.1 30.4"/>
    <polygon class="st1" points="48.25 5.49 36.79 5.49 36.79 12.89 46.69 12.89 46.69 17.53 36.81 17.53 36.81 25.9 48.93 25.9 48.93 30.4 29.81 30.4 29.81 .66 48.25 .66 48.25 5.49 48.25 5.49"/>
    <path class="st1" d="M219.64,11.42c-1.72,1.62-3.91.98-6.06,1.02v-7c2.69.02,5.63-.46,6.75,1.75.64,1.41.3,3.12-.68,4.23h-.01ZM222.41,16.31c1.11-.56,2.43-1.39,3.29-2.41,1.88-2.35,2.18-6.11.77-8.75-1.34-2.51-4.07-4.32-7.04-4.48h-12.94v29.73h7.08v-13.21l2.69.09,5.95,13.13h6.79l-6.59-14.09h0Z"/>
  </g>
</svg>