<svg xmlns="http://www.w3.org/2000/svg" viewBox="0.75 0.85 149.92 42.27"><path d="M141.594 32.013h3.14v-6.186c0-2.424.73-5.613 4.092-5.613.476 0 1.238.096 1.809.287v-3.508c-.54-.223-1.016-.255-1.491-.255-2.062 0-3.617 1.307-4.378 2.934h-.095v-2.52h-3.077v14.861Zm-12.213-3.858c0-1.436 1.586-2.041 2.918-2.328 1.142-.256 2.284-.574 3.077-.957v1.435c0 1.658-1.396 3.7-3.711 3.7-1.364 0-2.284-.67-2.284-1.85Zm1.427 4.337c2.157 0 3.902-1.084 4.727-2.743h.063c0 .861.095 1.563.286 2.296h3.172c-.286-1.18-.476-2.2-.476-4.656v-5.453c0-3.508-2.474-5.198-5.837-5.198-2.76 0-5.424 1.148-6.344 4.177l2.95 1.02c.507-1.753 1.745-2.582 3.236-2.582 1.713 0 2.759 1.052 2.759 2.296 0 1.403-1.332 1.499-4.472 2.168-2.665.575-4.949 1.69-4.949 4.497 0 2.775 2.379 4.178 4.885 4.178Zm-29.533-.479h3.14v-7.877c0-2.774 1.586-4.432 3.585-4.432 2.093 0 3.013 1.785 3.013 4.337v7.972h3.173v-7.877c0-2.774 1.586-4.432 3.584-4.432 1.999 0 2.982 1.817 2.982 4.337v7.972h3.172v-9.375c0-4.083-2.633-5.932-5.234-5.932-1.713 0-3.553.733-4.98 2.998h-.064c-.761-2.073-2.696-2.998-4.536-2.998-1.84 0-3.648.925-4.727 2.806h-.031V17.12h-3.077v14.893Zm-6.345 0h3.14V10.615h-3.14v21.398Zm-12.213-3.826c0-1.436 1.586-2.042 2.918-2.329 1.142-.255 2.284-.573 3.078-.956v1.435c0 1.658-1.396 3.7-3.712 3.7-1.364-.033-2.284-.702-2.284-1.85Zm1.428 4.305c2.157 0 3.901-1.084 4.726-2.743h.064c0 .861.095 1.563.285 2.296h3.172c-.285-1.18-.475-2.2-.475-4.656v-5.453c0-3.508-2.475-5.198-5.837-5.198-2.76 0-5.425 1.148-6.345 4.177l2.95 1.02c.508-1.753 1.745-2.582 3.236-2.582 1.713 0 2.76 1.052 2.76 2.296 0 1.403-1.332 1.499-4.473 2.168-2.665.575-4.949 1.69-4.949 4.497-.031 2.775 2.348 4.178 4.886 4.178Zm-21.254-.479h3.362v-6.601c.793-.861 1.586-1.722 2.348-2.583h.031c2.253 3.093 4.537 6.155 6.789 9.216h4.06c-2.855-3.922-5.741-7.845-8.596-11.767v-.032l8.184-9.09h-3.934c-2.918 3.254-5.868 6.507-8.755 9.76h-.095v-9.76h-3.363v20.857h-.031Z" fill="#2C112D" style="--darkreader-inline-fill: var(--darkreader-background-2c112d, #230e24);" data-darkreader-inline-fill=""/><path d="M55.056.856H32.469s-1.617 5.9-5.17 10.716c-3.807 5.102-9.58 9.152-9.834 9.408 10.627 0 24.426 1.817 37.59-20.124ZM17.432.888v20.123C12.959 21.011-.206 18.237.81.888M55.056 43.111H32.469s-1.617-5.9-5.17-10.715c-3.807-5.102-9.58-9.152-9.834-9.408 10.627 0 24.426-1.817 37.59 20.123ZM17.432 43.08V22.957C12.959 22.956-.206 25.73.81 43.08" fill="#F30000" style="--darkreader-inline-fill: var(--darkreader-background-f30000, #c20000);" data-darkreader-inline-fill=""/></svg>