<?xml version="1.0" encoding="UTF-8"?>
<!DOCTYPE svg PUBLIC "-//W3C//DTD SVG 1.1//EN" "http://www.w3.org/Graphics/SVG/1.1/DTD/svg11.dtd">
<!-- Creator: CorelDRAW -->
<svg xmlns="http://www.w3.org/2000/svg" xml:space="preserve" width="100mm" height="23.5mm" style="shape-rendering:geometricPrecision; text-rendering:geometricPrecision; image-rendering:optimizeQuality; fill-rule:evenodd; clip-rule:evenodd"
viewBox="0 0 100 23.5"
 xmlns:xlink="http://www.w3.org/1999/xlink">
 <defs>
  <style type="text/css">
   <![CDATA[
    .fil0 {fill:red}
    .fil1 {fill:white}
   ]]>
  </style>
 </defs>
 <g id="Ebene_x0020_1">
  <metadata id="CorelCorpID_0Corel-Layer"/>
  <g id="_129630848">
   <polygon id="_129049072" class="fil0" points="99.9997,0.0003 99.9997,23.5 0.0002,23.5 0.0002,0 "/>
   <path id="_129049216" class="fil1" d="M67.9562 9.6445l0 0 1.6686 0.0003 0 1.6757 -1.6686 -0.0003 0 -1.6757zm5.4811 8.023l0 0 0 -11.8309 -9.2958 0 0 11.8309 3.8242 0 0 -2.5391 1.6669 0 0 2.5391 3.8047 0zm-64.1595 -11.821l0 11.821 3.8093 0 0 -8.013 1.6666 0 0 8.013 3.809 0 0 -8.013 1.6666 0 0 8.013 3.8094 0 0 -11.821 -14.7609 0zm16.4444 0l0 11.821 3.8092 0 0 -11.821 -3.8092 0zm5.4926 0l0 11.821 3.8091 0 0 -8.013 1.6663 0 0 8.013 3.8096 0 0 -11.821 -9.285 0zm48.3823 2.2749l0 0 -1.3568 -2.2886 -4.3201 0 3.5197 5.9127 -3.5169 5.9061 4.3159 0.0041 1.3582 -2.2865 1.3635 2.2889 4.2968 -0.0038 -3.5083 -5.9088 3.5105 -5.9127 -4.299 -0.0003 -1.3635 2.2889zm-31.8999 -2.2749l0 11.821 3.8086 0 0 -8.013 1.6669 0 0 8.013 3.8092 0 0 -8.013 1.6669 0 0 8.013 3.809 0 0 -11.821 -14.7606 0zm-5.5019 -0.0092l3.8093 0 0 11.8205 -3.8093 0 0 -11.8205z"/>
  </g>
 </g>
</svg>
