<?xml version="1.0" encoding="UTF-8"?> <svg xmlns="http://www.w3.org/2000/svg" id="Ebene_1" data-name="Ebene 1" width="385.511" height="118.619" viewBox="0 0 289.134 88.964"><defs><style>.cls-3{fill:#009fe3}</style><clipPath id="clip-path" transform="translate(-14.047 -13.874)"><path fill="none" d="M-358.709-219.509h841.89v595.276h-841.89z"></path></clipPath></defs><g clip-path="url(#clip-path)"><path class="cls-3" d="M119.095 30.978c-34.503 6.915-72.98 7.418-73.364 2.088C47.055 21.916 159.213 19.789 159.213 37c0 9.35-18.254 13.527-48.313 16.025a1.205 1.205 0 0 1-1.175-1.737c1.35-2.767 2.536-5.75 3.953-8.43a1.17 1.17 0 0 1 .854-.604 99.698 99.698 0 0 0 6.312-1.25 5.258 5.258 0 0 0 3.902-6.362l-.022-.092a4.798 4.798 0 0 0-5.629-3.573m82.481 5.088C196.928 4.754 16.97 9.279 14.065 32.85c-.806 10.248 25.864 16.915 77.901 13.224a1.197 1.197 0 0 1 1.18 1.695l-1.73 3.646a5.268 5.268 0 0 1-4.88 3.011l-9.302-.212a5.264 5.264 0 0 0-4.673 2.624l-5.499 9.489a5.324 5.324 0 0 0 .87 6.396c8.887 9.081 7.607 15.941 4.751 22.738a5.288 5.288 0 0 0 4.837 7.377h1.869a5.433 5.433 0 0 0 5.081-2.896l8.143-16.138a2.894 2.894 0 0 1 4.144-1.136l25.568 16.35a24.24 24.24 0 0 0 13.062 3.82h15.52a5.276 5.276 0 0 0 2.833-9.723l-34.267-21.874a2.898 2.898 0 0 1 1.228-5.318c45.959-5.464 80.864-16.817 80.875-29.857M218.758 64.73c4.386.171 8.09-3.011 8.25-7.082.159-4.069-3.29-7.528-7.674-7.699s-8.093 3.011-8.25 7.08c-.159 4.071 3.287 7.532 7.674 7.701" transform="translate(-14.047 -13.874)"></path><path class="cls-3" d="M176.48 83.635l-.025-.683c-.11-3.148 3.322-6.187 3.713-6.522a7.324 7.324 0 0 1 4.058-1.612 1.86 1.86 0 0 1 1.46.554c1.211 1.367-.173 3.046-1.283 4.397-1.267 1.537-4.35 3.744-7.24 3.843zm126.603-3.984c-.537-2.861-3.659-4.621-5.749-6.314-2.347-1.901-4.95-4.154-8.097-2.471l-14.569 7.794c2.168-4.246 4.426-8.444 6.606-12.683a267.458 267.458 0 0 0 2.804-5.59c.866-1.784 2.017-3.677 1.885-5.738-.255-3.96-4.306-5.122-7.64-4.874-3.193.237-4.76 2.41-5.872 5.195-4.893 12.254-9.8 30.47-24.559 34.219-2.438.537-7.705.645-7.119-3.223.745-4.922 7.627-1.84 10.365-3.774 3.085-2.18 3.785-6.77.828-9.298-2.463-2.107-6.354-2.744-9.496-2.404-10.73 1.863-30.194 19.95-27.92 15.43 1.934-4.273 8.008-13.153.276-15.441-5.815-1.721-8.72 3.669-11.67 7.543-5.525 7.254-13.966 17.64-24.363 13.644-.949-.521.107-1.507.851-1.546 13.825-.454 19.26-13.456 15.093-19.326-3.92-5.452-13.732-7.213-25.856 2.675-13.486 10.938-12.682 27.727 7.59 29.146 6.073-.01 12.556-1.447 20.046-5.59 1.685 8.759 12.25 6.407 28.385-2.063 2.78 11.516 18.144 7.956 28.922 2.78 1.328 10.873 14.826 1.768 29.88-7.663-1.545 3.456-4.817 8.935-.403 11.676 2.233 1.387 5.871 1.215 8.377.73 3.02-.584 4.087-3.054 5.227-5.617 1.388-3.12 2.557-6.336 4-9.431 1.1-2.357 2.686-5.077 2.178-7.786" transform="translate(-14.047 -13.874)"></path></g></svg>