<?xml version="1.0" encoding="utf-8"?>
<!-- Generator: Adobe Illustrator 25.2.2, SVG Export Plug-In . SVG Version: 6.00 Build 0)  -->
<svg version="1.1" id="Ebene_1" xmlns="http://www.w3.org/2000/svg" xmlns:xlink="http://www.w3.org/1999/xlink" x="0px" y="0px"
	 viewBox="0 0 281.4 96.74" style="enable-background:new 0 0 281.4 96.74;" xml:space="preserve">
<style type="text/css">
	.st0{fill:#666666;}
	.st1{fill:#0A57A4;}
	.st2{fill-rule:evenodd;clip-rule:evenodd;}
</style>
<g>
	<g>
		<g>
			<path class="st0" d="M98.13,63.11V61.9h8.64v1.21h-3.6v9.59h-1.44v-9.59H98.13z"/>
			<path class="st0" d="M107.53,64.88v1.65h0.03c0.31-0.64,0.69-1.1,1.15-1.41c0.45-0.3,1.03-0.44,1.72-0.42v1.36
				c-0.51,0-0.95,0.07-1.32,0.21c-0.36,0.14-0.65,0.35-0.88,0.62c-0.22,0.27-0.38,0.6-0.48,0.99c-0.1,0.39-0.15,0.83-0.15,1.34v3.48
				h-1.29v-7.82H107.53z"/>
			<path class="st0" d="M116.66,72.7v-1.24h-0.03c-0.27,0.48-0.62,0.84-1.04,1.07c-0.42,0.23-0.92,0.34-1.5,0.34
				c-0.51,0-0.94-0.07-1.29-0.2c-0.34-0.14-0.62-0.33-0.83-0.58c-0.21-0.25-0.36-0.55-0.45-0.9c-0.09-0.35-0.13-0.73-0.13-1.16
				v-5.14h1.29v5.29c0,0.48,0.14,0.87,0.42,1.15c0.28,0.28,0.67,0.42,1.16,0.42c0.39,0,0.73-0.06,1.02-0.18
				c0.29-0.12,0.53-0.29,0.72-0.51c0.19-0.22,0.34-0.48,0.43-0.78c0.1-0.3,0.14-0.62,0.14-0.98v-4.42h1.29v7.82H116.66z"/>
			<path class="st0" d="M120.79,70.95c0.12,0.2,0.28,0.35,0.48,0.47c0.2,0.12,0.42,0.2,0.67,0.25c0.25,0.05,0.5,0.08,0.76,0.08
				c0.2,0,0.41-0.02,0.63-0.05c0.22-0.03,0.43-0.09,0.61-0.17c0.19-0.08,0.34-0.2,0.46-0.36c0.12-0.16,0.18-0.36,0.18-0.6
				c0-0.33-0.13-0.58-0.38-0.76c-0.25-0.17-0.57-0.31-0.95-0.42c-0.38-0.11-0.79-0.2-1.23-0.29c-0.44-0.09-0.86-0.21-1.23-0.36
				c-0.38-0.16-0.69-0.38-0.94-0.66c-0.25-0.28-0.38-0.68-0.38-1.18c0-0.39,0.09-0.73,0.27-1.01c0.18-0.28,0.4-0.51,0.68-0.69
				c0.28-0.18,0.59-0.31,0.94-0.39c0.35-0.09,0.69-0.13,1.03-0.13c0.45,0,0.85,0.04,1.23,0.11c0.37,0.08,0.7,0.21,0.99,0.39
				c0.29,0.19,0.52,0.44,0.69,0.76c0.17,0.32,0.27,0.71,0.3,1.19h-1.28c-0.02-0.25-0.09-0.46-0.2-0.63c-0.11-0.17-0.25-0.3-0.42-0.4
				c-0.17-0.1-0.36-0.17-0.57-0.22c-0.21-0.05-0.42-0.07-0.63-0.07c-0.19,0-0.38,0.02-0.58,0.05c-0.2,0.03-0.38,0.08-0.54,0.16
				c-0.16,0.08-0.29,0.18-0.39,0.3c-0.1,0.13-0.15,0.29-0.15,0.49c0,0.22,0.08,0.41,0.23,0.55c0.16,0.15,0.36,0.27,0.6,0.36
				c0.24,0.1,0.51,0.18,0.82,0.24c0.3,0.07,0.6,0.13,0.91,0.2c0.32,0.07,0.64,0.16,0.95,0.26c0.31,0.1,0.58,0.23,0.82,0.4
				c0.24,0.17,0.43,0.38,0.58,0.63c0.15,0.25,0.22,0.56,0.22,0.94c0,0.47-0.1,0.87-0.29,1.18c-0.2,0.31-0.45,0.57-0.77,0.76
				c-0.32,0.19-0.68,0.33-1.07,0.4c-0.4,0.08-0.79,0.11-1.19,0.11c-0.43,0-0.85-0.05-1.24-0.14c-0.39-0.09-0.74-0.24-1.04-0.45
				c-0.3-0.21-0.54-0.48-0.72-0.82c-0.18-0.34-0.28-0.75-0.3-1.23h1.29C120.6,70.52,120.67,70.76,120.79,70.95z"/>
			<path class="st0" d="M130.71,64.88v1.13h-1.56v4.85c0,0.15,0.01,0.27,0.04,0.36c0.03,0.09,0.07,0.16,0.14,0.21
				c0.07,0.05,0.17,0.08,0.29,0.1c0.13,0.02,0.29,0.02,0.49,0.02h0.59v1.13h-0.98c-0.33,0-0.62-0.02-0.85-0.07
				c-0.24-0.05-0.43-0.13-0.58-0.25c-0.15-0.12-0.25-0.29-0.32-0.51c-0.07-0.22-0.11-0.51-0.11-0.88v-4.98h-1.33v-1.13h1.33v-2.34
				h1.29v2.34H130.71z"/>
			<path class="st0" d="M139.68,64.88v1.13h-1.56v4.85c0,0.15,0.01,0.27,0.04,0.36c0.03,0.09,0.07,0.16,0.14,0.21
				c0.07,0.05,0.17,0.08,0.29,0.1c0.13,0.02,0.29,0.02,0.49,0.02h0.59v1.13h-0.98c-0.33,0-0.62-0.02-0.85-0.07
				c-0.24-0.05-0.43-0.13-0.58-0.25c-0.15-0.12-0.25-0.29-0.33-0.51c-0.07-0.22-0.11-0.51-0.11-0.88v-4.98h-1.33v-1.13h1.33v-2.34
				h1.29v2.34H139.68z"/>
			<path class="st0" d="M142.39,61.9v4.13h0.03c0.1-0.24,0.24-0.45,0.43-0.61c0.18-0.17,0.39-0.3,0.61-0.41
				c0.23-0.11,0.46-0.18,0.71-0.23c0.25-0.05,0.49-0.08,0.72-0.08c0.51,0,0.94,0.07,1.29,0.21c0.34,0.14,0.62,0.34,0.83,0.59
				c0.21,0.25,0.36,0.55,0.45,0.9c0.08,0.35,0.13,0.73,0.13,1.16v5.14h-1.28v-5.29c0-0.48-0.14-0.87-0.42-1.15
				c-0.28-0.28-0.67-0.42-1.16-0.42c-0.39,0-0.73,0.06-1.02,0.18c-0.29,0.12-0.53,0.29-0.72,0.51c-0.19,0.22-0.33,0.48-0.43,0.78
				c-0.1,0.3-0.14,0.62-0.14,0.98v4.42h-1.29V61.9H142.39z"/>
			<path class="st0" d="M155.04,72.2c-0.58,0.44-1.32,0.67-2.21,0.67c-0.63,0-1.17-0.1-1.63-0.3c-0.46-0.2-0.84-0.48-1.16-0.85
				c-0.31-0.36-0.55-0.8-0.7-1.3c-0.16-0.5-0.25-1.05-0.27-1.65c0-0.59,0.09-1.14,0.27-1.63c0.18-0.49,0.44-0.92,0.76-1.29
				c0.33-0.36,0.72-0.65,1.16-0.85c0.45-0.2,0.94-0.3,1.48-0.3c0.69,0,1.27,0.14,1.73,0.43c0.46,0.29,0.83,0.65,1.1,1.1
				c0.28,0.44,0.47,0.93,0.58,1.45c0.11,0.52,0.15,1.02,0.13,1.5h-5.85c-0.01,0.34,0.03,0.67,0.12,0.98
				c0.09,0.31,0.24,0.58,0.44,0.82c0.2,0.24,0.46,0.43,0.77,0.57c0.31,0.14,0.68,0.21,1.1,0.21c0.54,0,0.99-0.13,1.34-0.38
				c0.35-0.25,0.58-0.63,0.69-1.15h1.27C156.01,71.1,155.63,71.76,155.04,72.2z M154.74,67.18c-0.12-0.27-0.27-0.51-0.47-0.7
				c-0.2-0.2-0.43-0.35-0.7-0.47c-0.27-0.12-0.56-0.17-0.88-0.17c-0.33,0-0.63,0.06-0.9,0.17c-0.27,0.12-0.5,0.27-0.69,0.48
				c-0.19,0.2-0.34,0.44-0.45,0.7c-0.11,0.27-0.18,0.55-0.2,0.85h4.49C154.92,67.74,154.85,67.45,154.74,67.18z"/>
			<path class="st0" d="M162.82,70.95c0.12,0.2,0.28,0.35,0.48,0.47c0.2,0.12,0.42,0.2,0.67,0.25c0.25,0.05,0.5,0.08,0.76,0.08
				c0.2,0,0.41-0.02,0.63-0.05c0.22-0.03,0.43-0.09,0.61-0.17c0.19-0.08,0.34-0.2,0.46-0.36c0.12-0.16,0.18-0.36,0.18-0.6
				c0-0.33-0.13-0.58-0.38-0.76c-0.25-0.17-0.57-0.31-0.95-0.42c-0.38-0.11-0.79-0.2-1.23-0.29c-0.45-0.09-0.86-0.21-1.23-0.36
				c-0.38-0.16-0.69-0.38-0.94-0.66c-0.25-0.28-0.38-0.68-0.38-1.18c0-0.39,0.09-0.73,0.27-1.01c0.18-0.28,0.4-0.51,0.68-0.69
				c0.28-0.18,0.59-0.31,0.94-0.39c0.35-0.09,0.69-0.13,1.03-0.13c0.44,0,0.85,0.04,1.22,0.11c0.37,0.08,0.7,0.21,0.99,0.39
				c0.29,0.19,0.52,0.44,0.69,0.76c0.17,0.32,0.27,0.71,0.3,1.19h-1.29c-0.02-0.25-0.09-0.46-0.2-0.63c-0.11-0.17-0.25-0.3-0.42-0.4
				c-0.17-0.1-0.36-0.17-0.57-0.22c-0.21-0.05-0.42-0.07-0.63-0.07c-0.19,0-0.39,0.02-0.58,0.05c-0.2,0.03-0.38,0.08-0.54,0.16
				c-0.16,0.08-0.29,0.18-0.39,0.3c-0.1,0.13-0.15,0.29-0.15,0.49c0,0.22,0.08,0.41,0.23,0.55c0.16,0.15,0.36,0.27,0.6,0.36
				c0.24,0.1,0.51,0.18,0.82,0.24c0.3,0.07,0.6,0.13,0.91,0.2c0.32,0.07,0.64,0.16,0.95,0.26c0.31,0.1,0.58,0.23,0.82,0.4
				c0.24,0.17,0.43,0.38,0.58,0.63c0.15,0.25,0.22,0.56,0.22,0.94c0,0.47-0.1,0.87-0.29,1.18c-0.2,0.31-0.45,0.57-0.77,0.76
				c-0.32,0.19-0.68,0.33-1.07,0.4c-0.4,0.08-0.79,0.11-1.19,0.11c-0.43,0-0.85-0.05-1.24-0.14c-0.39-0.09-0.74-0.24-1.04-0.45
				c-0.3-0.21-0.54-0.48-0.73-0.82c-0.18-0.34-0.28-0.75-0.3-1.23h1.29C162.63,70.52,162.7,70.76,162.82,70.95z"/>
			<path class="st0" d="M170.68,61.9v4.13h0.03c0.1-0.24,0.24-0.45,0.42-0.61c0.18-0.17,0.39-0.3,0.61-0.41
				c0.23-0.11,0.46-0.18,0.71-0.23c0.25-0.05,0.49-0.08,0.72-0.08c0.52,0,0.94,0.07,1.29,0.21c0.34,0.14,0.62,0.34,0.83,0.59
				c0.21,0.25,0.36,0.55,0.45,0.9c0.09,0.35,0.13,0.73,0.13,1.16v5.14h-1.29v-5.29c0-0.48-0.14-0.87-0.42-1.15
				c-0.28-0.28-0.67-0.42-1.16-0.42c-0.39,0-0.73,0.06-1.02,0.18c-0.29,0.12-0.53,0.29-0.72,0.51c-0.19,0.22-0.34,0.48-0.43,0.78
				c-0.1,0.3-0.14,0.62-0.14,0.98v4.42h-1.29V61.9H170.68z"/>
			<path class="st0" d="M177.88,63.47V61.9h1.28v1.57H177.88z M179.17,64.88v7.82h-1.28v-7.82H179.17z"/>
			<path class="st0" d="M186.7,72.2c-0.58,0.44-1.32,0.67-2.21,0.67c-0.63,0-1.17-0.1-1.63-0.3c-0.46-0.2-0.84-0.48-1.16-0.85
				c-0.31-0.36-0.55-0.8-0.7-1.3c-0.16-0.5-0.24-1.05-0.26-1.65c0-0.59,0.09-1.14,0.27-1.63c0.18-0.49,0.44-0.92,0.76-1.29
				c0.33-0.36,0.72-0.65,1.17-0.85c0.45-0.2,0.94-0.3,1.47-0.3c0.7,0,1.27,0.14,1.73,0.43c0.46,0.29,0.83,0.65,1.1,1.1
				c0.28,0.44,0.47,0.93,0.57,1.45c0.11,0.52,0.15,1.02,0.13,1.5h-5.85c-0.01,0.34,0.03,0.67,0.12,0.98
				c0.09,0.31,0.24,0.58,0.44,0.82c0.2,0.24,0.46,0.43,0.77,0.57c0.31,0.14,0.68,0.21,1.1,0.21c0.54,0,0.99-0.13,1.34-0.38
				c0.35-0.25,0.58-0.63,0.69-1.15h1.27C187.66,71.1,187.28,71.76,186.7,72.2z M186.39,67.18c-0.12-0.27-0.27-0.51-0.47-0.7
				c-0.2-0.2-0.43-0.35-0.7-0.47c-0.27-0.12-0.56-0.17-0.88-0.17c-0.33,0-0.63,0.06-0.9,0.17c-0.27,0.12-0.5,0.27-0.69,0.48
				c-0.19,0.2-0.34,0.44-0.45,0.7c-0.11,0.27-0.18,0.55-0.2,0.85h4.49C186.57,67.74,186.5,67.45,186.39,67.18z"/>
			<path class="st0" d="M190.65,61.9v10.8h-1.29V61.9H190.65z"/>
			<path class="st0" d="M198.34,72.7v-1.06h-0.03c-0.21,0.43-0.54,0.75-1,0.94c-0.45,0.19-0.95,0.29-1.5,0.29
				c-0.61,0-1.13-0.11-1.58-0.33c-0.45-0.22-0.82-0.52-1.12-0.89c-0.3-0.37-0.52-0.81-0.67-1.3c-0.15-0.49-0.23-1.02-0.23-1.57
				c0-0.55,0.07-1.08,0.22-1.57c0.15-0.49,0.37-0.92,0.66-1.29c0.3-0.37,0.67-0.66,1.12-0.88c0.45-0.22,0.97-0.33,1.56-0.33
				c0.2,0,0.42,0.02,0.65,0.06c0.23,0.04,0.46,0.11,0.7,0.2c0.23,0.1,0.45,0.22,0.66,0.38c0.21,0.16,0.38,0.35,0.52,0.58h0.03V61.9
				h1.29v10.8H198.34z M193.72,69.92c0.1,0.35,0.24,0.66,0.44,0.93c0.2,0.27,0.45,0.49,0.76,0.65c0.31,0.16,0.67,0.24,1.08,0.24
				c0.43,0,0.8-0.09,1.1-0.26c0.3-0.17,0.55-0.4,0.74-0.67c0.19-0.28,0.33-0.59,0.42-0.95c0.08-0.35,0.13-0.71,0.13-1.07
				c0-0.38-0.05-0.75-0.14-1.11c-0.09-0.36-0.23-0.67-0.43-0.95c-0.2-0.27-0.45-0.49-0.76-0.66c-0.31-0.17-0.69-0.25-1.13-0.25
				c-0.43,0-0.8,0.09-1.1,0.26c-0.3,0.17-0.54,0.4-0.73,0.68c-0.18,0.28-0.31,0.61-0.39,0.97c-0.08,0.36-0.12,0.74-0.12,1.12
				C193.58,69.22,193.63,69.58,193.72,69.92z"/>
			<path class="st0" d="M203.58,71.02v1.68h-1.68v-1.68H203.58z"/>
		</g>
	</g>
	<g>
		<polygon class="st1" points="3.36,23.88 23.08,23.88 28.96,29.47 28.96,47.47 		"/>
		<path class="st1" d="M-0.47,28.42v16.48c0,3.79,4.36,6.57,4.36,6.57l11.19,6.84l9.53-6.68L-0.47,28.42z"/>
	</g>
	<g>
		<path class="st2" d="M46.01,44.8h6.27l-3.08-9.72L46.01,44.8z M46.33,29.43h5.83l8.75,24.71h-5.6l-1.59-5.08h-9.1l-1.71,5.08h-5.4
			L46.33,29.43z"/>
		<path class="st2" d="M64.92,46.51c0.15,1.12,0.45,1.96,0.92,2.53c0.84,1.01,2.26,1.51,4.31,1.53c1.21,0,2.2-0.13,2.97-0.4
			c1.44-0.5,2.16-1.46,2.16-2.87c0-0.81-0.35-1.42-1.07-1.9c-0.7-0.44-1.83-0.82-3.37-1.16l-2.62-0.59
			c-2.56-0.57-4.34-1.19-5.33-1.89c-1.66-1.14-2.48-2.92-2.5-5.35c0-2.21,0.8-4.04,2.41-5.51c1.61-1.46,3.97-2.18,7.09-2.2
			c2.6,0,4.81,0.69,6.65,2.08c1.84,1.37,2.8,3.37,2.9,6h-4.96c-0.08-1.47-0.72-2.53-1.94-3.17c-0.8-0.4-1.79-0.6-3-0.62
			c-1.32,0-2.38,0.27-3.19,0.8c-0.79,0.54-1.17,1.27-1.19,2.25c0,0.87,0.38,1.53,1.17,1.98c0.5,0.28,1.58,0.62,3.22,1.02l4.26,1.02
			c1.86,0.44,3.27,1.02,4.22,1.79c1.48,1.16,2.21,2.83,2.21,5.04c0,2.25-0.85,4.12-2.6,5.63c-1.71,1.48-4.14,2.21-7.31,2.23
			c-3.22,0-5.75-0.72-7.59-2.2c-1.84-1.48-2.77-3.49-2.77-6.07H64.92z"/>
		<polygon class="st2" points="81.18,54.13 81.18,29.43 86.3,29.43 86.3,38.85 95.95,38.85 95.95,29.43 101.08,29.43 101.08,54.13 
			95.95,54.13 95.95,43.1 86.3,43.1 86.3,54.13 		"/>
		<path class="st2" d="M105.54,32.01c2.01-2.03,4.56-3.03,7.68-3.05c4.16,0,7.19,1.36,9.12,4.09c1.06,1.53,1.63,3.05,1.71,4.61
			h-5.16c-0.34-1.17-0.75-2.06-1.29-2.68c-0.94-1.07-2.33-1.61-4.17-1.61c-1.88,0-3.35,0.75-4.44,2.28
			c-1.07,1.51-1.61,3.64-1.63,6.42c0,2.77,0.57,4.84,1.71,6.24c1.14,1.37,2.6,2.06,4.38,2.06c1.81,0,3.18-0.59,4.14-1.78
			c0.52-0.64,0.96-1.59,1.31-2.87h5.11c-0.44,2.68-1.58,4.86-3.44,6.57c-1.83,1.68-4.17,2.51-7.06,2.53c-3.55,0-6.34-1.14-8.38-3.42
			c-2.03-2.28-3.03-5.41-3.05-9.42C102.07,37.67,103.22,34.35,105.54,32.01"/>
		<path class="st2" d="M130.22,33.72v6.64h5.85c1.16,0,2.03-0.13,2.61-0.4c1.02-0.47,1.53-1.39,1.54-2.78c0-1.49-0.49-2.5-1.49-3.02
			c-0.55-0.28-1.39-0.42-2.51-0.43H130.22z M141.29,30.06c0.94,0.38,1.73,0.95,2.38,1.72c0.54,0.62,0.95,1.31,1.27,2.08
			c0.3,0.76,0.45,1.61,0.47,2.6c0,1.17-0.29,2.33-0.89,3.47c-0.59,1.12-1.56,1.91-2.94,2.4c1.14,0.45,1.95,1.11,2.42,1.96
			c0.47,0.84,0.7,2.11,0.72,3.85v1.66c0,1.12,0.03,1.88,0.13,2.3c0.13,0.64,0.44,1.11,0.94,1.41v0.62h-5.68
			c-0.15-0.54-0.25-0.97-0.34-1.32c-0.13-0.69-0.2-1.39-0.22-2.13l-0.03-2.3c-0.02-1.58-0.3-2.61-0.87-3.15
			c-0.54-0.52-1.56-0.77-3.1-0.79h-5.33v9.69h-5.04V29.43h12.12C139.02,29.46,140.35,29.66,141.29,30.06z"/>
		<path class="st2" d="M162.77,48.18c1.21-1.51,1.81-3.65,1.81-6.44c0-2.77-0.6-4.89-1.81-6.42c-1.19-1.51-2.8-2.26-4.86-2.28
			c-2.05,0-3.67,0.75-4.9,2.26c-1.21,1.51-1.81,3.65-1.83,6.44c0,2.78,0.6,4.93,1.83,6.44c1.21,1.51,2.83,2.26,4.9,2.26
			C159.96,50.45,161.57,49.69,162.77,48.18 M166.01,51.94c-1.86,1.91-4.56,2.87-8.1,2.88c-3.52,0-6.22-0.96-8.1-2.88
			c-2.5-2.35-3.74-5.73-3.75-10.19c0-4.53,1.24-7.91,3.75-10.19c1.86-1.91,4.56-2.87,8.1-2.88c3.52,0,6.22,0.96,8.1,2.88
			c2.48,2.26,3.72,5.65,3.74,10.19C169.75,46.17,168.51,49.56,166.01,51.94z"/>
		<polygon points="170.82,29.46 206.89,29.47 206.89,33.84 199.49,33.84 199.49,54.18 194.3,54.18 194.3,33.84 175.95,33.84 
			175.95,39.48 186.8,39.48 186.8,43.78 175.95,43.78 175.95,54.13 170.82,54.13 		"/>
		<path class="st2" d="M209.3,30.46c-0.4,0.4-0.6,0.89-0.6,1.46c0,0.57,0.2,1.06,0.59,1.47c0.4,0.4,0.88,0.61,1.46,0.61
			c0.57,0,1.05-0.2,1.45-0.61c0.4-0.4,0.6-0.89,0.6-1.47c0-0.57-0.2-1.05-0.6-1.46c-0.4-0.4-0.89-0.61-1.45-0.61
			C210.19,29.85,209.7,30.05,209.3,30.46 M212.44,33.61c-0.47,0.47-1.03,0.7-1.69,0.7c-0.66,0-1.22-0.23-1.69-0.7
			c-0.46-0.47-0.69-1.03-0.69-1.7c0-0.66,0.23-1.22,0.7-1.69c0.46-0.46,1.02-0.7,1.68-0.7c0.66,0,1.22,0.23,1.69,0.7
			c0.46,0.46,0.7,1.02,0.7,1.69C213.14,32.58,212.91,33.14,212.44,33.61z M211.2,31.01c-0.11-0.06-0.3-0.1-0.56-0.1h-0.39v0.95h0.42
			c0.2,0,0.34-0.02,0.44-0.06c0.18-0.07,0.27-0.21,0.27-0.41C211.37,31.21,211.32,31.08,211.2,31.01z M210.71,30.6
			c0.32,0,0.56,0.03,0.71,0.09c0.27,0.11,0.4,0.33,0.41,0.66c0,0.24-0.08,0.41-0.26,0.52c-0.09,0.06-0.22,0.1-0.38,0.13
			c0.21,0.03,0.36,0.12,0.45,0.26c0.09,0.14,0.14,0.27,0.14,0.41v0.19c0,0.06,0,0.12,0.01,0.2c0,0.07,0.01,0.11,0.02,0.14l0.02,0.03
			h-0.43c0-0.01,0-0.01-0.01-0.03c0-0.01,0-0.02-0.01-0.03l-0.01-0.08v-0.21c0-0.3-0.08-0.5-0.25-0.6c-0.1-0.06-0.27-0.08-0.51-0.08
			h-0.36v1.04h-0.46V30.6H210.71z"/>
	</g>
	<g>
		<path d="M204.48,61.8c1.05,0,1.93,0.83,1.93,1.91c0,1.11-0.88,1.93-1.93,1.93c-1.06,0-1.94-0.83-1.94-1.93
			C202.54,62.63,203.43,61.8,204.48,61.8z M204.48,65.37c0.89,0,1.58-0.71,1.58-1.65c0-0.92-0.69-1.63-1.58-1.63
			c-0.9,0-1.59,0.71-1.59,1.63C202.89,64.66,203.58,65.37,204.48,65.37z M203.73,62.6h0.87c0.54,0,0.79,0.21,0.79,0.64
			c0,0.41-0.26,0.58-0.59,0.61l0.64,0.99h-0.38l-0.61-0.97h-0.37v0.97h-0.35V62.6z M204.08,63.6h0.37c0.31,0,0.59-0.02,0.59-0.37
			c0-0.3-0.26-0.34-0.49-0.34h-0.46V63.6z"/>
	</g>
</g>
</svg>
