<?xml version="1.0" encoding="UTF-8" standalone="no"?>
<svg
   id="Livello_2"
   viewBox="0 0 503.23 103.6"
   version="1.1"
   xmlns="http://www.w3.org/2000/svg"
   xmlns:svg="http://www.w3.org/2000/svg">
  <defs
     id="defs1">
    <style
       id="style1">.cls-1{fill:#ffffff;}</style>
  </defs>
  <g
     id="Livello_1-2"
     style="fill:#000000">
    <path
       class="cls-1"
       d="m137.55,88.31c0,8.43,6.27,15.29,13.98,15.29h92.74v-20.1h-106.73v4.8Zm79.09-26.46v-20.1h-78.92v20.1h78.92Zm-105.16-20.1H19.47v-21.65h224.75V0H10.26C5.18,0,1.05,4.51,1.05,10.05v41.75c0,5.54,4.13,10.05,9.21,10.05h92.02v21.65H0v20.1h111.49c5.08,0,9.21-4.51,9.21-10.05v-41.75c0-5.54-4.13-10.05-9.21-10.05ZM494.02,0h-86.86c-3.19,0-6.11,1.76-7.8,4.71l-45.34,78.8h-75.78V20.1h75.41l.24-.42,9.77-17.13.34-.6-.52-.45-1.5-1.29-.24-.2h-92.72c-5.08,0-9.21,4.51-9.21,10.05v83.5c0,5.54,4.13,10.05,9.21,10.05h90.08c3.19,0,6.11-1.76,7.8-4.71l45.34-78.8h72.55v63.41h-74l-9.27-16.09-.73-1.26-.73,1.26-9.91,17.22-.24.42.24.42,7.73,13.42c1.7,2.95,4.61,4.71,7.8,4.71h88.31c5.08,0,9.21-4.51,9.21-10.05V10.05c0-5.54-4.13-10.05-9.21-10.05Z"
       id="path1"
       style="fill:#000000" />
  </g>
</svg>
