<?xml version="1.0" encoding="utf-8"?>
<svg xmlns="http://www.w3.org/2000/svg" id="Color" style="enable-background:new 0 0 1619.1 472.3;" version="1.1" viewBox="0 0 1619.1 472.3" x="0px" y="0px">
<style type="text/css">
	.st0{fill:#FF6B00;}
	.st1{fill:#004876;}
</style>
<g>
	<path class="st0" d="M53.7,432.7c22.1,0,34.2-9.7,34.2-40H64.5c-0.3,8.9,0.2,23.1-10.8,23.1c-13.3,0-15.1-12.5-15.1-41.6   s1.7-41.6,15.1-41.6c7.1,0,9.7,5.7,9.7,20.7h23.2c0.9-24.3-8.8-37.6-33-37.6c-39.1,0-39.1,28.5-39.1,58.5   C14.6,403.8,14.6,432.7,53.7,432.7"/>
	<path class="st0" d="M105,351.5v79.2h22.1v-43.2c0-7.8,0.3-19.1,19.8-17.9v-19.8c-8.9,0-16.5,2.7-20.6,11.8H126v-10.2h-21V351.5z"/>
	<path class="st0" d="M198.8,392.5c0,8.6,2,26.2-11,26.2c-7.2,0-8.2-6.9-8.2-12.6C179.6,392,187.8,392.9,198.8,392.5 M220.4,376.5   c0-14.5-3.6-26.5-31.7-26.5c-8.5,0-15.7,1.4-20.7,5.2c-5.2,3.6-8.2,9.7-8.2,19.3h21.7c0-6.3,0.6-12.1,8.3-12.1   c8,0,8.9,4.9,8.9,11.6v6.1c-20.6-0.3-40.8,0.8-40.8,27c0,13.8,5.6,25.2,21,25.2c9.6,0,16-3.9,20.7-12.1h0.3l0.9,10.5h20.6   c-0.5-4.9-1.1-9.9-1.1-14.8v-39.4H220.4z"/>
	<path class="st0" d="M264.1,351.5H242v79.2h22.1v-54.6c0-7.1,1.2-12.6,8.3-12.6c7.1,0,8.3,5.5,8.3,12.6v54.6h22.1v-63.6   c0-10.9-9.3-17.3-19.8-17.3c-4.1,0-7.7,0.6-10.8,2.2c-3,1.4-5.6,3.8-7.9,7.4H264L264.1,351.5L264.1,351.5z"/>
	<path class="st0" d="M342.4,382.3c0-6.7-0.2-18.7,10-18.7c10.5,0,10.2,11,10.2,18.7H342.4L342.4,382.3z M384.8,394.7   c0.8-25.4-2.5-44.7-32.3-44.7c-29.2,0-32.3,18.5-32.3,40.2c0,24.8,3.8,42.2,32.3,42.2c10.4,0,18.2-2.8,23.4-7.7   c5.3-4.9,8.2-11.9,8.5-20.6H362c0,6.6-1.6,14.1-9.4,14.1c-9.7,0-10-14.1-10-23.5H384.8L384.8,394.7z"/>
	<path class="st1" d="M481.6,399.9c7.6-35.6-40.6-33.7-36-55.2c1.7-7.9,7.1-12.1,14.8-12.1c9.6,0,9.1,8.6,7.3,17.1h23.1   c6.6-23.7-2.6-34.1-25.7-34.1c-28.9,0-40.3,14.1-44.1,31.8c-7.2,33.7,40.2,35,35.9,55.4c-1.6,7.7-6.6,12.9-14.7,12.9   c-13,0-11.6-9.1-9.3-19.9h-23.7c-5.4,19.6-3.6,36.9,25.8,36.9C453.1,432.6,475.4,429.2,481.6,399.9"/>
	<polygon class="st1" points="490.1,460.8 513.3,460.8 567.2,351.5 545.8,351.5 522,407.2 521.7,407.2 522.3,351.5 500.3,351.5    504.8,431.4"/>
	<path class="st1" d="M564.8,405.3c-6,22.1,5.9,27,25.2,27c18.4,0,31.9-10.4,34.8-24.2c5.4-25.4-33.6-24.8-31-37.3   c1.1-5.3,4.5-8.5,9.3-8.5c2.4,0,4.2,0.3,5.3,1.7c1.3,1.4,1.2,4.7,0,10.2H630c4.9-17.1-7.2-24.3-22.3-24.3c-14.3,0-32.3,5.2-36,22.3   c-5.4,25.2,34.4,21.5,30.8,38.3c-1.1,5.4-5.5,8.2-9.9,8.2s-6.5-1.3-7.2-3.8c-0.6-2.5,0-6,0.9-9.6L564.8,405.3L564.8,405.3z"/>
	<path class="st1" d="M643,365.2h8.9L641.6,414c-1,4.9-1.2,17.6,17.9,17.6c5.4,0,8.6-0.5,11.6-0.8l2.9-13.7c-1.2,0.3-2.6,0.3-4,0.3   c-7.2,0-6.3-3.9-5-9.9l9-42.4h11.5l2.9-13.7h-11.5l4.8-22.4l-24.2,9.9l-2.7,12.6h-8.9L643,365.2L643,365.2z"/>
	<path class="st1" d="M717,382.3c1.4-6.7,3.8-18.7,14-18.7c10.5,0,7.9,11,6.2,18.7H717L717,382.3z M756.8,394.7   c6.2-25.4,7-44.7-22.8-44.7c-29.2,0-36.3,18.5-40.9,40.2c-5.3,24.8-5.2,42.2,23.3,42.2c10.4,0,18.8-2.8,25-7.7   c6.4-4.9,10.7-11.9,12.9-20.6h-22.5c-1.4,6.6-4.6,14.1-12.4,14.1c-9.7,0-7-14.1-5-23.5H756.8L756.8,394.7z"/>
	<path class="st1" d="M805.2,351.5h-22.1l-16.8,79.2h22.1l11.6-54.6c1.5-7.1,3.9-12.6,11-12.6s7.1,5.5,5.7,12.6l-11.6,54.6h21.5   l11.6-54.6c1.5-7.1,3.9-12.6,11-12.6s7.2,5.5,5.6,12.6l-11.6,54.6h22.1l13.5-63.6c2.3-10.9-5.6-17.3-16.1-17.3   c-9.1,0-16,3.1-22.7,10c-2.3-6.3-7.8-10-15.6-10c-8.3,0-14.8,2.5-20.7,9.6h-0.3L805.2,351.5L805.2,351.5z"/>
	<path class="st1" d="M887.1,405.3c-6,22.1,5.9,27,25.2,27c18.4,0,31.8-10.3,34.8-24.2c5.4-25.4-33.6-24.8-31-37.3   c1.1-5.3,4.5-8.5,9.3-8.5c2.4,0,4.2,0.3,5.3,1.7c1.3,1.4,1.2,4.7,0,10.2h21.7c4.9-17.1-7.2-24.3-22.3-24.3   c-14.3,0-32.3,5.2-36,22.3c-5.4,25.2,34.3,21.5,30.8,38.3c-1.2,5.4-5.5,8.2-9.9,8.2s-6.5-1.3-7.2-3.8c-0.6-2.5,0-6,0.9-9.6   L887.1,405.3L887.1,405.3z"/>
	<path class="st1" d="M166.8,33.2C143.7,21.8,129.6,18,101.4,18c-51.1,0-86.5,29.7-86.5,72.6c0,13.2,3.5,25.4,10.1,35.8   c8.7,14.2,23.6,23.3,47.6,29.7l26.8,7.1c21.5,5.8,31.6,15.2,31.6,30.4c0,21-14.6,32.1-42.4,32.1c-24.3,0-43.8-7.4-66.4-18.9   l-4.4-2.3l-8.2,42.1C32.9,258.3,61.1,265,86.5,265c60.1,0,99.7-31.4,99.7-79c0-34.8-21.6-59.5-61.2-69.9l-29.2-7.8   C75.6,102.9,69,96.8,69,84.6c0-15.9,13.9-27,33.7-27c18.1,0,33.9,4.7,55.8,17.6L166.8,33.2L166.8,33.2z"/>
	<polygon class="st1" points="193.5,21.8 193.5,62.1 252.6,62.1 252.6,263.4 301.9,263.4 301.9,62.1 359.6,62.1 367.6,21.8"/>
	<path class="st1" d="M428,21.1l-79.2,242.3h50.7l17-57.3h70.9l17,57.3h52.2L480.5,21.2L428,21.1L428,21.1z M431.5,165.7   c5.2-16,8.4-27.4,12.9-44.8c4.5-18.1,11.5-46.6,11.5-46.6s7.3,31.6,9.7,42.8c5.2,23.3,13.2,48.7,13.2,48.7h-47.3V165.7z"/>
	<polygon class="st1" points="590.5,21.8 590.5,263.4 638.8,263.4 638.8,155.6 708.3,155.6 708.3,263.4 757.7,263.4 757.7,21.8    708.3,21.8 708.3,115.6 638.8,115.6 638.8,21.8"/>
	<polygon class="st1" points="816.9,21.8 816.9,263.4 944.4,263.4 953.1,223 866.6,223 866.6,21.8"/>
	<polygon class="st0" points="1118.4,21.9 1485.1,388.6 1485.1,21.9"/>
	<polygon class="st1" points="1143,130.3 1143.1,364 1376.8,364 1443.4,430.5 1076.5,430.5 1076.5,63.7"/>
	<path class="st1" d="M1573.5,94.3c-20,0-36.2-16.2-36.2-36.2s16.2-36.1,36.2-36.1s36.1,16.2,36.1,36.1   C1609.6,78.1,1593.4,94.3,1573.5,94.3 M1573.5,27.3c-16.8,0-30.4,13.9-30.4,30.9s13.6,30.9,30.4,30.9s30.5-13.9,30.5-30.9   C1603.9,41.2,1590.2,27.3,1573.5,27.3 M1582.2,77.9l-9.1-16.2h-6v16.2h-5.5V38.2h13.5c6.9,0,12.5,5.2,12.5,11.9   c0,5.8-3.6,9.4-8.5,10.9l9.5,16.9L1582.2,77.9L1582.2,77.9z M1574.6,43.2h-7.4v13.9h7.4c4.4,0,7.5-2.9,7.5-6.9   S1579,43.2,1574.6,43.2"/>
</g>
</svg>